<svg width="30" height="24" viewBox="0 0 30 24" fill="none" xmlns="http://www.w3.org/2000/svg">
<path d="M0.00428566 4.69418C0.0586681 3.43057 0.589963 2.23709 1.48741 1.36255C2.38485 0.488015 3.57919 -8.82948e-05 4.82143 1.19802e-08H25.1786C26.4208 -8.82948e-05 27.6151 0.488015 28.5126 1.36255C29.41 2.23709 29.9413 3.43057 29.9957 4.69418L28.4143 5.58873L15 12.9425L1.58571 5.58873L0.00428566 4.69418ZM0 7.18691V19.0909C0 20.3929 0.50797 21.6415 1.41216 22.5622C2.31636 23.4828 3.54271 24 4.82143 24H25.1786C26.4573 24 27.6836 23.4828 28.5878 22.5622C29.492 21.6415 30 20.3929 30 19.0909V7.18691L29.4364 7.50655L15.5079 15.1429C15.3518 15.2285 15.1773 15.2732 15 15.2732C14.8227 15.2732 14.6482 15.2285 14.4921 15.1429L0.550714 7.49891L0 7.18691Z" fill="#0D0D0D"/>
</svg>
