<svg width="35" height="28" viewBox="0 0 35 28" fill="none" xmlns="http://www.w3.org/2000/svg">
<path d="M0.00499994 5.37875C0.0684461 3.93086 0.68829 2.56333 1.73531 1.56126C2.78233 0.559184 4.17572 -0.000101171 5.625 1.37273e-08H29.375C30.8243 -0.000101171 32.2177 0.559184 33.2647 1.56126C34.3117 2.56333 34.9316 3.93086 34.995 5.37875L33.15 6.40375L17.5 14.83L1.85 6.40375L0.00499994 5.37875ZM0 8.235V21.875C0 23.3668 0.592632 24.7976 1.64752 25.8525C2.70242 26.9074 4.13316 27.5 5.625 27.5H29.375C30.8668 27.5 32.2976 26.9074 33.3525 25.8525C34.4074 24.7976 35 23.3668 35 21.875V8.235L34.3425 8.60125L18.0925 17.3512C17.9104 17.4493 17.7068 17.5006 17.5 17.5006C17.2932 17.5006 17.0896 17.4493 16.9075 17.3512L0.6425 8.5925L0 8.235Z" fill="#737373"/>
</svg>
