<svg width="35" height="35" viewBox="0 0 35 35" fill="none" xmlns="http://www.w3.org/2000/svg">
<path fill-rule="evenodd" clip-rule="evenodd" d="M17.5 0C12.747 0 12.152 0.0198333 10.2853 0.105C8.42217 0.190167 7.14933 0.4865 6.03633 0.919333C4.86967 1.358 3.8115 2.04633 2.9365 2.93767C2.04659 3.81166 1.35783 4.86908 0.918167 6.03633C0.487667 7.14933 0.190167 8.42333 0.105 10.2865C0.021 12.152 0 12.7458 0 17.5C0 22.2542 0.0198333 22.848 0.105 24.7147C0.190167 26.5778 0.4865 27.8507 0.919333 28.9637C1.358 30.1303 2.04633 31.1885 2.93767 32.0635C3.81168 32.9534 4.86909 33.6421 6.03633 34.0818C7.14933 34.5135 8.42217 34.8098 10.2853 34.895C12.152 34.9802 12.747 35 17.5 35C22.253 35 22.848 34.9802 24.7147 34.895C26.5778 34.8098 27.8507 34.5135 28.9637 34.0807C30.1303 33.642 31.1885 32.9537 32.0635 32.0623C32.9534 31.1883 33.6422 30.1309 34.0818 28.9637C34.5135 27.8507 34.8098 26.5778 34.895 24.7147C34.9802 22.848 35 22.253 35 17.5C35 12.747 34.9802 12.152 34.895 10.2853C34.8098 8.42217 34.5135 7.14933 34.0807 6.03633C33.6413 4.86857 32.9525 3.81071 32.0623 2.9365C31.1883 2.04659 30.1309 1.35783 28.9637 0.918167C27.8507 0.487667 26.5767 0.190167 24.7135 0.105C22.848 0.021 22.2542 0 17.5 0ZM17.5 3.1535C22.1725 3.1535 22.7267 3.171 24.5723 3.255C26.278 3.33317 27.2043 3.61667 27.8215 3.85817C28.6382 4.17433 29.2215 4.55467 29.834 5.166C30.4465 5.7785 30.8257 6.36183 31.1418 7.1785C31.3822 7.79567 31.6668 8.722 31.745 10.4277C31.829 12.2733 31.8465 12.8275 31.8465 17.5C31.8465 22.1725 31.829 22.7267 31.745 24.5723C31.6668 26.278 31.3833 27.2043 31.1418 27.8215C30.8618 28.5816 30.4149 29.2693 29.834 29.834C29.2694 30.415 28.5817 30.8619 27.8215 31.1418C27.2043 31.3822 26.278 31.6668 24.5723 31.745C22.7267 31.829 22.1737 31.8465 17.5 31.8465C12.8263 31.8465 12.2733 31.829 10.4277 31.745C8.722 31.6668 7.79567 31.3833 7.1785 31.1418C6.41836 30.8618 5.73067 30.4149 5.166 29.834C4.58521 29.2693 4.13832 28.5816 3.85817 27.8215C3.61783 27.2043 3.33317 26.278 3.255 24.5723C3.171 22.7267 3.1535 22.1725 3.1535 17.5C3.1535 12.8275 3.171 12.2733 3.255 10.4277C3.33317 8.722 3.61667 7.79567 3.85817 7.1785C4.17433 6.36183 4.55467 5.7785 5.166 5.166C5.7306 4.58505 6.41831 4.13814 7.1785 3.85817C7.79567 3.61783 8.722 3.33317 10.4277 3.255C12.2733 3.171 12.8275 3.1535 17.5 3.1535Z" fill="#737373"/>
<path fill-rule="evenodd" clip-rule="evenodd" d="M17.5 23.3392C16.7332 23.3392 15.9739 23.1881 15.2655 22.8947C14.557 22.6012 13.9133 22.1711 13.3711 21.6289C12.8289 21.0867 12.3988 20.443 12.1053 19.7346C11.8119 19.0261 11.6609 18.2668 11.6609 17.5C11.6609 16.7332 11.8119 15.9739 12.1053 15.2654C12.3988 14.557 12.8289 13.9133 13.3711 13.3711C13.9133 12.8289 14.557 12.3988 15.2655 12.1053C15.9739 11.8119 16.7332 11.6608 17.5 11.6608C19.0487 11.6608 20.5339 12.276 21.6289 13.3711C22.724 14.4661 23.3392 15.9514 23.3392 17.5C23.3392 19.0486 22.724 20.5339 21.6289 21.6289C20.5339 22.724 19.0487 23.3392 17.5 23.3392ZM17.5 8.505C15.1144 8.505 12.8265 9.45268 11.1396 11.1396C9.45271 12.8265 8.50503 15.1144 8.50503 17.5C8.50503 19.8856 9.45271 22.1735 11.1396 23.8604C12.8265 25.5473 15.1144 26.495 17.5 26.495C19.8857 26.495 22.1736 25.5473 23.8605 23.8604C25.5473 22.1735 26.495 19.8856 26.495 17.5C26.495 15.1144 25.5473 12.8265 23.8605 11.1396C22.1736 9.45268 19.8857 8.505 17.5 8.505ZM29.1119 8.34167C29.1119 8.90558 28.8878 9.4464 28.4891 9.84515C28.0904 10.2439 27.5495 10.4679 26.9856 10.4679C26.4217 10.4679 25.8809 10.2439 25.4821 9.84515C25.0834 9.4464 24.8594 8.90558 24.8594 8.34167C24.8594 7.77775 25.0834 7.23693 25.4821 6.83818C25.8809 6.43943 26.4217 6.21542 26.9856 6.21542C27.5495 6.21542 28.0904 6.43943 28.4891 6.83818C28.8878 7.23693 29.1119 7.77775 29.1119 8.34167Z" fill="#737373"/>
</svg>
