<svg width="35" height="35" viewBox="0 0 35 35" fill="none" xmlns="http://www.w3.org/2000/svg">
<path d="M35 2.57353V32.4265C35 33.109 34.7289 33.7636 34.2462 34.2462C33.7636 34.7289 33.109 35 32.4265 35H2.57353C1.89099 35 1.2364 34.7289 0.753769 34.2462C0.271139 33.7636 0 33.109 0 32.4265L0 2.57353C0 1.89099 0.271139 1.2364 0.753769 0.753769C1.2364 0.271139 1.89099 0 2.57353 0L32.4265 0C33.109 0 33.7636 0.271139 34.2462 0.753769C34.7289 1.2364 35 1.89099 35 2.57353V2.57353ZM10.2941 13.3824H5.14706V29.8529H10.2941V13.3824ZM10.7574 7.72059C10.7601 7.33126 10.6861 6.9452 10.5396 6.58447C10.3931 6.22373 10.177 5.89539 9.90359 5.61817C9.6302 5.34096 9.30489 5.12031 8.94622 4.96883C8.58756 4.81734 8.20257 4.73799 7.81324 4.73529H7.72059C6.92884 4.73529 6.16952 5.04982 5.60967 5.60967C5.04982 6.16952 4.73529 6.92884 4.73529 7.72059C4.73529 8.51234 5.04982 9.27166 5.60967 9.83151C6.16952 10.3914 6.92884 10.7059 7.72059 10.7059V10.7059C8.10995 10.7155 8.49738 10.6482 8.86075 10.508C9.22411 10.3678 9.55629 10.1574 9.83831 9.88876C10.1203 9.62013 10.3466 9.29856 10.5043 8.94244C10.662 8.58631 10.748 8.2026 10.7574 7.81324V7.72059ZM29.8529 19.8471C29.8529 14.8956 26.7029 12.9706 23.5735 12.9706C22.5489 12.9193 21.5287 13.1375 20.6148 13.6035C19.7008 14.0695 18.925 14.7671 18.3647 15.6265H18.2206V13.3824H13.3824V29.8529H18.5294V21.0926C18.455 20.1954 18.7376 19.3051 19.3159 18.6151C19.8941 17.9251 20.7213 17.491 21.6176 17.4074H21.8132C23.45 17.4074 24.6647 18.4368 24.6647 21.0309V29.8529H29.8118L29.8529 19.8471Z" fill="#0D0D0D"/>
</svg>
