<svg width="30" height="30" viewBox="0 0 30 30" fill="none" xmlns="http://www.w3.org/2000/svg">
<path fill-rule="evenodd" clip-rule="evenodd" d="M15 0C10.926 0 10.416 0.017 8.816 0.09C7.219 0.163 6.128 0.417 5.174 0.788C4.174 1.164 3.267 1.754 2.517 2.518C1.75422 3.26713 1.16386 4.17349 0.787 5.174C0.418 6.128 0.163 7.22 0.09 8.817C0.018 10.416 0 10.925 0 15C0 19.075 0.017 19.584 0.09 21.184C0.163 22.781 0.417 23.872 0.788 24.826C1.164 25.826 1.754 26.733 2.518 27.483C3.26715 28.2458 4.17351 28.8361 5.174 29.213C6.128 29.583 7.219 29.837 8.816 29.91C10.416 29.983 10.926 30 15 30C19.074 30 19.584 29.983 21.184 29.91C22.781 29.837 23.872 29.583 24.826 29.212C25.826 28.836 26.733 28.246 27.483 27.482C28.2458 26.7329 28.8361 25.8265 29.213 24.826C29.583 23.872 29.837 22.781 29.91 21.184C29.983 19.584 30 19.074 30 15C30 10.926 29.983 10.416 29.91 8.816C29.837 7.219 29.583 6.128 29.212 5.174C28.8354 4.17306 28.245 3.26632 27.482 2.517C26.7329 1.75422 25.8265 1.16386 24.826 0.787C23.872 0.418 22.78 0.163 21.183 0.09C19.584 0.018 19.075 0 15 0ZM15 2.703C19.005 2.703 19.48 2.718 21.062 2.79C22.524 2.857 23.318 3.1 23.847 3.307C24.547 3.578 25.047 3.904 25.572 4.428C26.097 4.953 26.422 5.453 26.693 6.153C26.899 6.682 27.143 7.476 27.21 8.938C27.282 10.52 27.297 10.995 27.297 15C27.297 19.005 27.282 19.48 27.21 21.062C27.143 22.524 26.9 23.318 26.693 23.847C26.4529 24.4985 26.0699 25.088 25.572 25.572C25.0881 26.07 24.4986 26.4531 23.847 26.693C23.318 26.899 22.524 27.143 21.062 27.21C19.48 27.282 19.006 27.297 15 27.297C10.994 27.297 10.52 27.282 8.938 27.21C7.476 27.143 6.682 26.9 6.153 26.693C5.50146 26.4529 4.91201 26.0699 4.428 25.572C3.93018 25.088 3.54713 24.4985 3.307 23.847C3.101 23.318 2.857 22.524 2.79 21.062C2.718 19.48 2.703 19.005 2.703 15C2.703 10.995 2.718 10.52 2.79 8.938C2.857 7.476 3.1 6.682 3.307 6.153C3.578 5.453 3.904 4.953 4.428 4.428C4.91194 3.93004 5.50141 3.54698 6.153 3.307C6.682 3.101 7.476 2.857 8.938 2.79C10.52 2.718 10.995 2.703 15 2.703Z" fill="#0D0D0D"/>
<path fill-rule="evenodd" clip-rule="evenodd" d="M15 20.005C14.3428 20.005 13.6919 19.8755 13.0847 19.624C12.4775 19.3725 11.9257 19.0038 11.461 18.5391C10.9962 18.0743 10.6275 17.5226 10.376 16.9153C10.1245 16.3081 9.99502 15.6573 9.99502 15C9.99502 14.3427 10.1245 13.6919 10.376 13.0847C10.6275 12.4774 10.9962 11.9257 11.461 11.4609C11.9257 10.9962 12.4775 10.6275 13.0847 10.376C13.6919 10.1245 14.3428 9.995 15 9.995C16.3274 9.995 17.6005 10.5223 18.5391 11.4609C19.4777 12.3995 20.005 13.6726 20.005 15C20.005 16.3274 19.4777 17.6005 18.5391 18.5391C17.6005 19.4777 16.3274 20.005 15 20.005ZM15 7.29C12.9552 7.29 10.9941 8.1023 9.54823 9.54821C8.10232 10.9941 7.29002 12.9552 7.29002 15C7.29002 17.0448 8.10232 19.0059 9.54823 20.4518C10.9941 21.8977 12.9552 22.71 15 22.71C17.0448 22.71 19.0059 21.8977 20.4518 20.4518C21.8977 19.0059 22.71 17.0448 22.71 15C22.71 12.9552 21.8977 10.9941 20.4518 9.54821C19.0059 8.1023 17.0448 7.29 15 7.29ZM24.953 7.15C24.953 7.63336 24.761 8.09692 24.4192 8.4387C24.0774 8.78049 23.6139 8.9725 23.1305 8.9725C22.6472 8.9725 22.1836 8.78049 21.8418 8.4387C21.5 8.09692 21.308 7.63336 21.308 7.15C21.308 6.66664 21.5 6.20308 21.8418 5.8613C22.1836 5.51951 22.6472 5.3275 23.1305 5.3275C23.6139 5.3275 24.0774 5.51951 24.4192 5.8613C24.761 6.20308 24.953 6.66664 24.953 7.15Z" fill="#0D0D0D"/>
</svg>
